<?xml version="1.0" encoding="utf-8"?>
<!-- Generator: Adobe Illustrator 19.2.1, SVG Export Plug-In . SVG Version: 6.00 Build 0)  -->
<svg version="1.1" id="Layer_1" xmlns="http://www.w3.org/2000/svg" xmlns:xlink="http://www.w3.org/1999/xlink" x="0px" y="0px"
	 viewBox="0 0 386 71.5" style="enable-background:new 0 0 386 71.5;" xml:space="preserve">
<text transform="matrix(1 0 0 1 -30.499 -94.9873)"><tspan x="0" y="0" style="font-family:'CplKirkwood'; font-size:70.9843px; letter-spacing:1;">HOL</tspan><tspan x="81" y="0" style="font-family:'CplKirkwood'; font-size:70.9843px; letter-spacing:-1;">D</tspan><tspan x="105.9" y="0" style="font-family:'CplKirkwood'; font-size:70.9843px;"> </tspan><tspan x="123.4" y="0" style="font-family:'CplKirkwood'; font-size:70.9843px; letter-spacing:1;">PLEASE</tspan><tspan x="284.3" y="0" style="font-family:'CplKirkwood'; font-size:70.9843px;">!</tspan></text>
<g>
	<path d="M182.3,66.9h-7.1V52.3h6.7c2.9,0,4.4,1.5,4.4,3.9c0,1.2-0.5,2.2-1.4,2.9c1.2,0.7,2,1.8,2,3.5
		C186.9,65.2,185.1,66.9,182.3,66.9z M178,54.8V58h3.9c0.9,0,1.7-0.7,1.7-1.6s-0.7-1.6-1.7-1.6H178z M181.8,60.6H178v3.8h3.9
		c1.1,0,2.1-0.4,2.1-1.8C184,61.3,183.3,60.6,181.8,60.6z"/>
	<path d="M203.9,66.9h-10.8V52.3h10.6v2.6h-7.9V58h6.7v2.6h-6.7v3.7h8V66.9z"/>
	<path d="M212.7,63.9l-1,2.9h-2.9l5.1-14.6h3.5l5.1,14.6h-2.9l-1-2.9H212.7z M215.6,55.4l-2,6h4.1L215.6,55.4z"/>
	<path d="M238.7,61.1c0,3.7-2,6-5.6,6c-3.7,0-5.6-2.3-5.6-6v-8.8h2.8v8.9c0,2.2,0.9,3.3,2.8,3.3s2.8-1.1,2.8-3.3v-8.9h2.8V61.1z"/>
	<path d="M251.1,54.9v12h-2.8v-12h-3.9v-2.6H255v2.6H251.1z"/>
	<path d="M267.6,66.9h-2.8v-5.6l-4.9-9h3.1l3.1,6.2l3.2-6.2h3.1l-4.9,9V66.9z"/>
	<path d="M297.2,56.7h-2.8c0-1.3-1-2.2-2.8-2.2c-1.5,0-2.8,0.6-2.8,1.7c0,1,1,1.4,3.2,1.8c3.5,0.7,5.6,1.6,5.6,4.5
		c0,2.8-2.4,4.6-6,4.6c-2.9,0-6-1.6-6-5.1h2.8c0,1.7,1.7,2.5,3.2,2.5c1.6,0,3.3-0.6,3.3-2c0-0.9-0.8-1.5-3.4-2s-5.4-1.3-5.4-4.5
		c0-2.5,2.2-4.2,5.6-4.2C295.4,51.9,297.2,54.4,297.2,56.7z"/>
	<path d="M314.9,61.1c0,3.7-2,6-5.6,6c-3.7,0-5.6-2.3-5.6-6v-8.8h2.8v8.9c0,2.2,0.9,3.3,2.8,3.3s2.8-1.1,2.8-3.3v-8.9h2.8V61.1z"/>
	<path d="M327.8,61.7h-3.4v5.2h-2.8V52.3h6.1c3,0,4.8,1.8,4.8,4.7C332.5,59.7,330.7,61.7,327.8,61.7z M324.4,54.9v4.2h3.3
		c1.3,0,2.1-0.7,2.1-2.1s-0.8-2.1-2.1-2.1H324.4z"/>
	<path d="M344.8,61.7h-3.4v5.2h-2.8V52.3h6.1c3,0,4.8,1.8,4.8,4.7C349.5,59.7,347.7,61.7,344.8,61.7z M341.4,54.9v4.2h3.3
		c1.3,0,2.1-0.7,2.1-2.1s-0.8-2.1-2.1-2.1H341.4z"/>
	<path d="M358.4,64.3h7.2v2.6h-10V52.3h2.8V64.3z"/>
	<path d="M375.3,66.9h-2.8v-5.6l-4.9-9h3.1l3.1,6.2l3.2-6.2h3.1l-4.9,9V66.9z"/>
</g>
<g>
	<g>
		<path d="M341.3-252.6c-4.6,0-8.6-2.5-10.8-5.6v19h-5.3v-46.1h5.1v5.1c2.2-3.2,6.3-5.9,11-5.9c9.2,0,15.9,7.5,15.9,16.7
			C357.2-260.1,350.4-252.6,341.3-252.6z M341.3-281.3c-5.9,0-10.8,5.3-10.8,11.8c0,6.6,5,12,10.8,12c6,0,10.7-5.4,10.7-12
			C351.9-276,347.2-281.3,341.3-281.3z"/>
		<path d="M369.3-253.4h-5.3v-60.5h5.3V-253.4z"/>
		<path d="M407.6-263.3c-2.2,6.8-7.7,10.7-15.1,10.7c-9.2,0-16.4-7.3-16.4-16.7c0-9.2,7.2-16.8,16.1-16.8c8.2,0,16.2,6.8,16.1,18.2
			h-26.8c0.7,6.6,5.8,10.5,11,10.5c4.5,0,7.7-2.2,9.5-5.9H407.6z M402.5-272.7c-1.3-5.2-5.6-8.7-10.3-8.7c-4.4,0-9.1,3.2-10.4,8.7
			H402.5z"/>
		<path d="M445.8-253.4h-5.1v-5.1c-2.2,3.3-6.3,6-11,6c-9.2,0-16-7.5-16-16.7s6.8-16.8,16-16.8c4.7,0,8.8,2.7,11,5.9v-5.1h5.1
			V-253.4z M429.7-281.1c-6,0-10.7,5.3-10.7,11.8c0,6.4,4.7,11.7,10.7,11.7c5.9,0,10.8-5.3,10.8-11.7
			C440.5-275.8,435.6-281.1,429.7-281.1z"/>
		<path d="M464.6-252.6c-7.7,0-13.4-4.2-14.3-10.9h5.3c0.7,3.7,4.3,6,8.9,6c5,0,8-2.4,8-5.2c0-2.2-0.9-3.9-8.7-5
			c-7.8-1.1-12.5-3-12.5-9c0-4.6,4-9.5,12.5-9.5c7.4,0,12.3,3.7,13,10h-5.3c-0.7-3.4-3.8-5.1-7.7-5.1c-4.2,0-7.3,2-7.3,4.5
			c0,2.3,1.8,3.1,8.1,4.1c7.1,1.1,12.9,2.5,12.9,9.7C477.7-256.6,472.3-252.6,464.6-252.6z"/>
		<path d="M514-263.3c-2.2,6.8-7.7,10.7-15.1,10.7c-9.2,0-16.4-7.3-16.4-16.7c0-9.2,7.2-16.8,16.1-16.8c8.2,0,16.2,6.8,16.1,18.2
			h-26.8c0.7,6.6,5.8,10.5,11,10.5c4.5,0,7.8-2.2,9.5-5.9H514z M508.9-272.7c-1.3-5.2-5.6-8.7-10.3-8.7c-4.4,0-9.1,3.2-10.4,8.7
			H508.9z"/>
	</g>
	<g>
		<path d="M210.8-253.4h-9.4v-21.4c0-2.1-0.7-7-6.8-7c-4.2,0-7.1,2.8-7.1,7v21.4h-9.4v-60.5h9.4v25.9c2.3-1.8,5.2-2.8,8.4-2.8
			c8.9,0,14.9,6.5,14.9,16.1V-253.4z"/>
		<path d="M253.7-271.6c0,10.9-8.3,19.1-18.5,19.1c-10.2,0-18.4-8.2-18.4-19.1c0-10.9,8.2-19.2,18.4-19.2
			C245.4-290.9,253.7-282.6,253.7-271.6z M244.3-271.6c0-6.3-4-10.7-9-10.7c-5,0-9,4.4-9,10.7c0,6.2,4,10.4,9,10.4
			C240.3-261.1,244.3-265.4,244.3-271.6z"/>
		<path d="M269.7-253.4h-9.4v-60.5h9.4V-253.4z"/>
		<path d="M313.8-253.4h-8.9v-3.9c-2.9,3-6.7,4.7-11.2,4.7c-9.5,0-17.4-8.2-17.4-19c0-10.9,7.9-19.1,17.4-19.1c4.3,0,8,1.6,10.8,4.3
			v-27.4h9.4V-253.4z M295.1-282.1c-5.2,0-9.4,4.5-9.4,10.5c0,5.8,4.2,10.3,9.4,10.3c5.2,0,9.4-4.6,9.4-10.3
			C304.4-277.4,300.2-282.1,295.1-282.1z"/>
	</g>
</g>
<text transform="matrix(1 0 0 1 -282.5989 -84.3206)"><tspan x="0" y="0" style="font-family:'Chalet-LondonNineteenEighty'; font-size:62px;"> pl</tspan><tspan x="71.3" y="0" style="font-family:'Chalet-LondonNineteenEighty'; font-size:62px; letter-spacing:1;">e</tspan><tspan x="108.8" y="0" style="font-family:'Chalet-LondonNineteenEighty'; font-size:62px; letter-spacing:-1;">a</tspan><tspan x="145.8" y="0" style="font-family:'Chalet-LondonNineteenEighty'; font-size:62px;">s</tspan><tspan x="177.7" y="0" style="font-family:'Chalet-LondonNineteenEighty'; font-size:62px;">e</tspan></text>
<text transform="matrix(1 0 0 1 -433.3324 -84.3204)" style="font-family:'Chalet-NewYorkNineteenEighty'; font-size:70.9843px;"> hold</text>
<g>
	<path d="M32.6,7.4v33.3h-4V25.2H10.3v15.5H6.2V7.4h4.1v13.9h18.2V7.4H32.6z"/>
	<path d="M80.1,23.9c0,9.7-7.4,17.4-16.5,17.4s-16.5-7.6-16.5-17.4c0-9.7,7.4-17.3,16.5-17.3C72.8,6.5,80.1,14,80.1,23.9z
		 M76.1,23.9c0-7.7-5.5-13.4-12.5-13.4c-6.9,0-12.5,5.9-12.5,13.4c0,7.6,5.6,13.4,12.5,13.4S76.1,31.4,76.1,23.9z"/>
	<path d="M115.8,40.7H94.5V7.4h4.1v29.4h17.1V40.7z"/>
	<path d="M130.4,7.4h12.3c9.2,0,15.1,6.3,15.1,16.6s-5.9,16.7-15.1,16.7h-12.3V7.4z M134.5,11.3v25.5h8.3c6.1,0,10.9-3.8,10.9-12.8
		c0-9.1-4.8-12.7-10.9-12.7H134.5z"/>
	<path d="M188.8,25.8h-11.7v14.8h-1.8V7.4h13.3c6.1,0,9.9,3.6,9.9,9.2C198.5,22.1,194.5,25.8,188.8,25.8z M188.6,9.1h-11.5v14.9
		h11.7c4,0,8-2.4,8-7.5C196.7,11.9,193.8,9.1,188.6,9.1z"/>
	<path d="M214.1,38.9h19.2v1.8h-20.9V7.4h1.8V38.9z"/>
	<path d="M248.9,22.3h18.2v1.7h-18.2v14.8h20.3v1.8h-22.1V7.4h22.1v1.8h-20.3V22.3z"/>
	<path d="M288,29.2l-4.4,11.5h-1.9l12.8-33.3h2l12.8,33.3h-1.9l-4.4-11.5H288z M295.4,9.8l-6.7,17.6h13.5L295.4,9.8z"/>
	<path d="M342,16.3h-1.8c0-4.9-3.7-8.1-9.4-8.1c-5.7,0-9.5,2.9-9.5,7.2c0,3.6,2.8,5.6,9.9,7.1C338.7,24,343,26,343,31.8
		c0,5.8-4.8,9.6-12.3,9.6c-5.8,0-12-3.4-12-10.8h1.8c0,6.1,5.2,8.9,10.3,8.9c6.5,0,10.6-2.9,10.6-7.7c0-4.1-2.6-6-10.4-7.6
		c-5.9-1.2-11.3-3.1-11.3-8.8c0-5.3,4.5-8.9,11.3-8.9C338.6,6.5,342,11.4,342,16.3z"/>
	<path d="M360.2,22.3h18.2v1.7h-18.2v14.8h20.3v1.8h-22.1V7.4h22.1v1.8h-20.3V22.3z"/>
</g>
<text transform="matrix(1 0 0 1 -90.0399 -239.4401)"><tspan x="0" y="0" style="font-family:'Chalet-NewYorkNineteenEighty'; font-size:21px; letter-spacing:4;">BEAUTY</tspan><tspan x="103" y="0" style="font-family:'Chalet-NewYorkNineteenEighty'; font-size:21px; letter-spacing:1;"> </tspan><tspan x="111.2" y="0" style="font-family:'Chalet-NewYorkNineteenEighty'; font-size:21px; letter-spacing:4;">SUPPLY</tspan></text>
<text transform="matrix(1 0 0 1 -282.5989 -265.6274)"><tspan x="0" y="0" style="font-family:'Chalet-LondonNineteenEighty'; font-size:48px; letter-spacing:8;"> HO</tspan><tspan x="110.8" y="0" style="font-family:'Chalet-LondonNineteenEighty'; font-size:48px; letter-spacing:9;">L</tspan><tspan x="146.7" y="0" style="font-family:'Chalet-LondonNineteenEighty'; font-size:48px; letter-spacing:11;">D</tspan><tspan x="191.5" y="0" style="font-family:'Chalet-ParisNineteenSixty'; font-size:48px; letter-spacing:8;">PL</tspan><tspan x="263.3" y="0" style="font-family:'Chalet-ParisNineteenSixty'; font-size:48px; letter-spacing:9;">E</tspan><tspan x="301.6" y="0" style="font-family:'Chalet-ParisNineteenSixty'; font-size:48px; letter-spacing:7;">A</tspan><tspan x="336.8" y="0" style="font-family:'Chalet-ParisNineteenSixty'; font-size:48px; letter-spacing:9;">S</tspan><tspan x="374.6" y="0" style="font-family:'Chalet-ParisNineteenSixty'; font-size:48px; letter-spacing:8;">E</tspan></text>
</svg>
